<svg width="35" height="35" viewBox="0 0 35 35" fill="none" xmlns="http://www.w3.org/2000/svg">
  <circle r="17.25" transform="matrix(-1 0 0 1 17.5 17.5)" fill="white" fill-opacity="0.9" stroke="currentColor" stroke-width="0.5"/>
  <path d="M16.475 23.8333C16.5995 23.8338 16.7225 23.8063 16.835 23.7529C16.9475 23.6996 17.0466 23.6217 17.125 23.525L21.15 18.525C21.2726 18.3759 21.3396 18.1889 21.3396 17.9958C21.3396 17.8028 21.2726 17.6158 21.15 17.4667L16.9834 12.4667C16.8419 12.2965 16.6387 12.1895 16.4183 12.1691C16.1979 12.1488 15.9785 12.2169 15.8084 12.3583C15.6382 12.4998 15.5312 12.703 15.5108 12.9234C15.4905 13.1437 15.5586 13.3631 15.7 13.5333L19.425 18L15.825 22.4667C15.7231 22.589 15.6584 22.7379 15.6385 22.8959C15.6186 23.0538 15.6444 23.2142 15.7127 23.358C15.7811 23.5017 15.8893 23.6229 16.0243 23.7072C16.1594 23.7914 16.3158 23.8352 16.475 23.8333Z" fill="#939393"/>
</svg>
