<svg xmlns="http://www.w3.org/2000/svg" xmlns:xlink="http://www.w3.org/1999/xlink"><symbol id="icon-arrow" viewBox="0 0 35 35">
  <circle r="17.25" transform="matrix(-1 0 0 1 17.5 17.5)" fill="white" fill-opacity="0.9" stroke="currentColor" stroke-width="0.5"/>
  <path d="M16.475 23.8333C16.5995 23.8338 16.7225 23.8063 16.835 23.7529C16.9475 23.6996 17.0466 23.6217 17.125 23.525L21.15 18.525C21.2726 18.3759 21.3396 18.1889 21.3396 17.9958C21.3396 17.8028 21.2726 17.6158 21.15 17.4667L16.9834 12.4667C16.8419 12.2965 16.6387 12.1895 16.4183 12.1691C16.1979 12.1488 15.9785 12.2169 15.8084 12.3583C15.6382 12.4998 15.5312 12.703 15.5108 12.9234C15.4905 13.1437 15.5586 13.3631 15.7 13.5333L19.425 18L15.825 22.4667C15.7231 22.589 15.6584 22.7379 15.6385 22.8959C15.6186 23.0538 15.6444 23.2142 15.7127 23.358C15.7811 23.5017 15.8893 23.6229 16.0243 23.7072C16.1594 23.7914 16.3158 23.8352 16.475 23.8333Z" fill="#939393"/>
</symbol><symbol id="personal-area" viewBox="0 0 30 30">
  <path d="M29.9243 25.7064C29.7924 25.0728 29.1719 24.6661 28.5381 24.798C27.9045 24.9299 27.4978 25.5505 27.6298 26.1841C27.7058 26.5491 27.6152 26.9231 27.3816 27.2106C27.2462 27.3771 26.9444 27.6562 26.4441 27.6562H3.55657C3.0563 27.6562 2.75448 27.377 2.61913 27.2106C2.3854 26.9232 2.29493 26.5491 2.37093 26.1841C3.5871 20.3426 8.73954 16.0754 14.6897 15.9315C14.7927 15.9355 14.8963 15.9375 15.0003 15.9375C15.1048 15.9375 15.2087 15.9354 15.3122 15.9315C19.5035 16.032 23.3775 18.1549 25.7235 21.6537C26.0839 22.1913 26.8118 22.3349 27.3495 21.9745C27.887 21.6141 28.0307 20.8861 27.6702 20.3486C25.7473 17.4807 22.9551 15.3954 19.7715 14.3476C21.7116 12.8927 22.9691 10.5748 22.9691 7.96875C22.9691 3.5748 19.3943 0 15.0003 0C10.6063 0 7.03159 3.5748 7.03159 7.96875C7.03159 10.5764 8.29066 12.8955 10.2327 14.3503C8.45337 14.9361 6.78374 15.8476 5.32241 17.0496C2.64281 19.2537 0.779699 22.3281 0.0763983 25.7064C-0.144031 26.765 0.120051 27.8522 0.800793 28.6893C1.4782 29.5223 2.48267 30 3.55657 30H26.4441C27.518 30 28.5225 29.5223 29.1998 28.6893C29.8807 27.8522 30.1447 26.765 29.9243 25.7064ZM9.37534 7.96875C9.37534 4.86709 11.8987 2.34375 15.0003 2.34375C18.102 2.34375 20.6253 4.86709 20.6253 7.96875C20.6253 10.9749 18.2549 13.4378 15.2851 13.5866C15.1903 13.5848 15.0954 13.584 15.0003 13.584C14.9058 13.584 14.8112 13.5849 14.7168 13.5867C11.7463 13.4385 9.37534 10.9753 9.37534 7.96875Z" fill="currentColor"/>
</symbol></svg>